<?xml version="1.0" encoding="utf-8"?>
<!-- Generator: Adobe Illustrator 22.1.0, SVG Export Plug-In . SVG Version: 6.00 Build 0)  -->
<svg version="1.1" xmlns="http://www.w3.org/2000/svg" xmlns:xlink="http://www.w3.org/1999/xlink" x="0px" y="0px"
	 viewBox="0 0 289 80" style="enable-background:new 0 0 289 80;" xml:space="preserve">
<style type="text/css">
	.st0{fill:#21759A;}
	.st1{fill:#FEFEFE;}
	.st2{fill:#FDFDFD;}
	.st3{fill:#FCFDFD;}
	.st4{fill:#FCFCFD;}
	.st5{fill:#FAFCFC;}
	.st6{fill:#FBFCFC;}
	.st7{fill:#21749A;}
	.st8{fill:#27789D;}
	.st9{fill:#2E7DA0;}
	.st10{fill:#22759B;}
	.st11{fill:#FDFEFE;}
	.st12{fill:#FDFDFE;}
</style>
<g id="Capa_2">
	<rect class="st0" width="289" height="80"/>
</g>
<g id="Capa_1">
	<g>
		<path class="st0" d="M219.6,80c-53.3,0-106.6,0-159.9,0c-1,0-1.2-0.2-1.2-1.2c0-25.8,0-51.6,0-77.4c0-1,0.2-1.4,1.2-1.2
			c0.7,0.1,1.3,0,2,0c0.8,0.6,0.6,1.5,0.6,2.3c0,7.3,0,14.6,0,21.9c0,8.4,6.4,16.1,14.7,17.5c2.5,0.4,5,0.3,7.4,0.1
			c2.9-0.2,4.7,0.6,6.2,3.3c2.1,3.8,5.5,5.9,10.1,5.6c3-0.2,6,0,9.1,0c1.8,0,2.1-0.4,2.1-2.1c0.1-3.1,0.1-3.2,3.2-3.2
			c2,0,4.1,0,6.1,0c0.4,0,0.7,0,1.1,0c0.8-0.1,1.4-0.3,1.4-1.2c0-0.9-0.7-1.1-1.5-1.2c-0.4,0-0.9,0-1.3,0c-2.3,0-4.6,0-6.9,0
			c-1.7,0-2-0.3-2.1-2c-0.1-1.9-0.1-3.8,0-5.7c0.1-1.6,0.4-1.9,2-2c2.6-0.1,5.1,0,7.7,0c0.8,0,2,0.2,2-1.1c0-1.3-1.2-1.1-2.1-1.1
			c-2.5,0-5,0-7.5,0c-1.9,0-2.2-0.3-2.2-2.2c0-3.6-0.4-3.4-3.6-3.4c-2.7,0-5.4,0.1-8.1,0c-4-0.1-6.9,1.6-9.1,4.7
			c-0.7,0.9-1.3,1.9-1.9,2.9c-0.4,0.8-1,1.1-1.8,1.1c-3.2,0.1-6.5,0.2-9.7,0c-3.2-0.2-5.2-2.5-6.9-4.9c-1-1.4-1.3-3-1.3-4.7
			c0-7.4,0-14.8,0-22.2c0-0.8-0.1-1.7,0.6-2.3c53.4,0,106.8,0,160.3,0c0.9,0,1.2,0.1,1.2,1.1c0,25.9,0,51.8,0,77.7
			c0,0.9-0.2,1.2-1.1,1.1c-0.8-0.1-1.6,0-2.4,0c-0.8-0.7-0.6-1.6-0.6-2.5c0-8.6-0.1-17.1,0-25.7c0-3.7-0.9-7-2.9-10.1
			c-3.5-5.3-8.2-8.3-14.7-8.3c-2.4,0-4.8,0-7.2,0c-1.1,0-1.8-0.4-2.3-1.4c-1-2-2.3-3.7-3.9-5.1c-1.6-1.4-3.4-2.1-5.4-2.2
			c-3.7-0.1-7.5,0-11.2,0c-1.5,0-1.9,0.4-1.9,1.9c0,3.4-0.1,3.4-3.6,3.4c-2,0-4,0-6,0c-0.4,0-0.8,0-1.2,0.1
			c-0.6,0.1-1.1,0.5-1.1,1.1c0,0.7,0.4,1,1,1.2c0.4,0.1,0.9,0.1,1.3,0.1c2.5,0,5,0,7.5,0c1.6,0,2,0.4,2,2c0.1,2,0.1,4,0,6
			c-0.1,1.4-0.4,1.7-1.8,1.8c-2.1,0.1-4.2,0-6.3,0c-0.5,0-1,0-1.5,0c-0.9,0.1-2.2-0.3-2.2,1c0,1.4,1.3,1.1,2.1,1.1c2.5,0,5,0,7.5,0
			c1.8,0,2.1,0.3,2.1,2.1c0,0.2,0,0,0,0.1C178,50,178,50,181.2,50c2.6,0,5.2-0.1,7.9,0c4.6,0.2,7.8-1.9,10.2-5.6
			c0.1-0.1,0.2-0.3,0.3-0.5c0.8-2.4,2.6-3,5-2.8c2.1,0.2,4.3,0.2,6.4,0c4.6-0.4,9.4,5.6,9.3,9.3c-0.2,7.3,0,14.6,0,21.9
			c0,1.9,0,3.8,0,5.7C220.2,78.8,220.2,79.5,219.6,80z"/>
		<path class="st1" d="M219.6,80c0-9.8-0.1-19.5,0-29.3c0.1-3.6-4.5-9.2-8.9-8.8c-2.6,0.2-5.2,0.1-7.8,0c-0.9,0-1.4,0.2-1.9,1.1
			c-1.4,2.7-3.2,5.1-5.9,6.6c-1.3,0.7-2.7,1-4.2,1c-4.1,0-8.3,0-12.4,0c-1,0-1.5-0.3-1.4-1.4c0-0.2,0-0.4,0-0.7
			c-0.1-1.1,0.5-2.6-0.2-3.3c-0.7-0.7-2.2-0.2-3.3-0.2c-2.4,0-4.7,0-7.1,0c-1,0-1.4-0.2-1.4-1.3c0.1-2.3,0-2.3,2.4-2.3
			c2.8,0,5.7,0,8.5,0c0.9,0,1.1-0.3,1.1-1.1c-0.1-2.1-0.1-4.2,0-6.2c0-0.8-0.2-1.1-1-1c-3.2,0.1-6.5,0-9.7,0c-0.9,0-1.3-0.2-1.3-1.2
			c0.1-2.6,0-2.6,2.6-2.6c2.7,0,5.3-0.1,8,0c1.3,0.1,1.6-0.4,1.5-1.6c-0.1-0.9,0-1.9,0-2.8c-0.1-0.9,0.3-1,1.1-1c4.4,0,8.8,0,13.2,0
			c2.7,0,4.8,1.4,6.6,3.4c1.3,1.4,2.4,3,3.3,4.8c0.3,0.6,0.8,0.6,1.3,0.6c2.8,0,5.6,0,8.4,0c3.9,0,7.2,1.4,10.1,3.8
			c3.8,3.1,6.1,7,7,11.8c0.1,0.4,0.1,0.9,0.1,1.3c0,9.7,0,19.5,0,29.2c0,0.3,0,0.6-0.1,0.9C225.3,80,222.4,80,219.6,80z"/>
		<path class="st1" d="M70.2,0.1c0,8.2,0.1,16.4,0,24.6c-0.1,3.8,4.5,9.3,8.9,8.9c2.6-0.2,5.3-0.1,8,0c0.9,0,1.3-0.2,1.7-1
			c1.3-2.6,3.1-4.9,5.6-6.5c1.4-0.9,2.9-1.2,4.5-1.2c4.1,0,8.3,0,12.4,0c1.1,0,1.5,0.3,1.3,1.4c0,0,0,0.1,0,0.1
			c0.1,1.3-0.6,3.1,0.3,3.8c0.7,0.6,2.4,0.2,3.7,0.2c2.3,0,4.6,0,6.9,0c0.8,0,1.1,0.2,1.1,1c0,2.6,0.1,2.6-2.6,2.6
			c-2.8,0-5.5,0-8.3,0c-0.9,0-1.2,0.2-1.2,1.2c0.1,2.1,0.1,4.2,0,6.3c0,0.8,0.2,1,1.1,1c3.2-0.1,6.5,0,9.7,0c0.9,0,1.3,0.2,1.3,1.2
			c-0.1,2.6,0,2.6-2.6,2.6c-2.7,0-5.4,0.1-8.1,0c-1.1,0-1.5,0.3-1.4,1.4c0.1,1,0,2,0,2.9c0.1,0.9-0.3,1-1.1,1c-4.3,0-8.7,0-13,0
			c-3.5,0-5.8-2.1-7.8-4.6c-0.6-0.7-1.3-1.5-1.6-2.4c-0.5-1.6-1.6-1.7-3-1.7c-3.1,0-6.3,0.3-9.4-0.2c-4.2-0.6-7.5-2.8-10.3-5.9
			c-2.4-2.7-4-5.9-4.6-9.6c-0.1-0.6-0.1-1.2-0.1-1.8c0-8.1,0-16.1,0-24.2c0-0.3,0-0.6,0.1-0.9C64.5,0.1,67.3,0.1,70.2,0.1z"/>
		<path class="st2" d="M144.6,54.5c-8.8,0-15.9-7.2-15.9-15.9c0-8.8,7.1-15.9,15.9-15.9c8.7,0,15.8,7.1,15.9,15.8
			C160.5,47.3,153.3,54.5,144.6,54.5z"/>
		<path class="st2" d="M129.4,67.7c1.3-0.3,1.4-1.2,1.2-2.1c-0.3-1.5,1.1-3.6-1.2-4.7c1.6-0.1,3.3-0.3,4.9,0.1
			c0.9,0.2,1.5,0.8,1.6,1.7c0.1,0.9-0.3,1.4-1.8,2.3c0.8,0.9,1.4,1.9,2.6,2.3c1.1,0.4,1.7,0,1.8-1.2c0.1-1.2,0-2.4,0-3.6
			c0-0.9-0.5-1.3-1.3-1.6c2.1,0,4.2-0.6,6.2,0.3c1.3,0.6,1.8,1.7,1.8,3.1c0,1.4-0.7,2.4-1.9,3c-0.6,0.3-1.3,0.4-2.1,0.4
			c-0.4,0-0.9,0-1.3,0c-1.5,0-3,0.1-4.5,0c-1.7-0.1-1.8-2.1-3.1-2.8c-0.5,1.6-0.3,1.9,1.1,2.7C132.1,67.7,130.8,67.7,129.4,67.7z"/>
		<path class="st2" d="M168.2,65.8c0.1,1.9,0.1,1.9-1.6,1.9c-1.9,0-3.8-0.1-5.7,0c-1,0-1.8-0.2-2.3-1.1c-0.4-0.6-0.9-1.2-1.4-1.8
			c-0.6,1.4-0.4,2,1.1,2.7c-1.5,0.2-2.8,0.1-4.3,0.1c2.5-1.5,1-3.7,1.4-5.4c0.2-0.9-0.6-1.1-1.2-1.4c1.8-0.1,3.6-0.5,5.4,0.2
			c0.7,0.3,1.1,0.8,1.1,1.6c0,1.2-0.8,1.7-1.8,2.1c0.7,0.9,1.3,1.7,2.3,2.2c1.2,0.6,1.8,0.3,1.9-1c0.1-1,0-2,0-3.1
			c0-0.9,0-1.9-1.5-1.8c0.1-0.1,0.2-0.3,0.2-0.4c1.9,0,3.8-0.1,5.7,0.1c0.8,0.1,0.4,1.1,0.4,1.8c-0.5-0.9-1.2-1.2-2.2-1.3
			c-0.9,0-1.3,0.2-1.2,1.2c0.1,0.4-0.3,1.1,0.5,1.1c0.6,0.1,1.2-0.1,1.2-0.9c0-0.1,0.1-0.2,0.3-0.4c0.3,1.1,0.2,2.1,0.1,3.1
			c-0.2,0-0.3,0-0.3-0.1c-0.1-0.7-0.6-1.1-1.3-1c-0.7,0-0.5,0.6-0.5,1c0,0.7-0.1,1.5,0.9,1.7C166.4,67.4,167.3,67,168.2,65.8z"/>
		<path class="st3" d="M113,64.8c0.7-2,1.2-3.6,1.8-5.3c0.1-0.3,0.1-0.8,0.5-0.8c0.4,0,0.4,0.5,0.5,0.8c0.6,1.7,1.1,3.3,1.8,5.3
			c0.5-1.6,0.9-2.7,1.3-3.9c0.4-1,0.5-1.8-0.9-2.2c1.2,0,2.5,0,3.7,0c-1.7,0.4-1.9,1.9-2.3,3.2c-0.7,2.1-1.4,4.2-2.4,6.2
			c-0.7-2-1.3-4-2.2-6.5c-0.8,2.4-1.5,4.4-2.2,6.5c-0.1,0-0.2,0-0.3,0c-0.6-1.7-1.1-3.3-1.7-5c-0.2-0.7-0.4-1.3-0.7-2
			c-0.6-1.7-0.6-1.7-2.3-2.4c1.8,0,3.3,0,4.8,0c-1.7,0.4-1.2,1.5-0.8,2.5C112.1,62.3,112.5,63.4,113,64.8z"/>
		<path class="st4" d="M150.5,67.7c-1.6,0-3.1,0-4.7,0c1.5-0.4,1.5-1.5,1.5-2.7c0-1.2,0-2.5,0-3.7c0-1.1-0.2-2.1-1.6-2.4
			c2.2-0.1,4.4-0.6,6.4,0.3c0.9,0.4,1.3,1.3,1.3,2.3c-0.1,1-0.6,1.7-1.6,2.1c-0.4,0.2-0.9,0.2-1.3,0.3c-0.6,0.2-1.5-0.5-1.7,0.7
			c-0.3,1.6,0.1,2.3,1.4,2.9C150.3,67.4,150.4,67.5,150.5,67.7z"/>
		<path class="st3" d="M124.7,68.1c-2.3,0-4.2-1.7-4.2-3.7c0-2.1,1.9-3.8,4.3-3.8c2.4,0,4.2,1.7,4.2,3.8
			C129,66.4,127.1,68.1,124.7,68.1z"/>
		<path class="st5" d="M174.1,62.9c-0.6-0.1-0.5-0.6-0.8-0.9c-0.4-0.6-1-0.9-1.7-0.7c-0.4,0.1-0.7,0.2-0.8,0.6
			c-0.1,0.4,0.1,0.7,0.4,0.9c0.6,0.3,1.2,0.6,1.8,0.9c1.5,0.8,2.1,1.7,1.6,2.9c-0.5,1.3-2,1.8-3.5,1.3c-0.5-0.2-1-0.7-1.5,0.1
			c0-0.9,0-1.8,0-2.7c0.5-0.1,0.5,0.3,0.6,0.6c0.3,0.6,0.6,1.1,1.2,1.3c0.7,0.3,1.6,0.4,2-0.4c0.5-0.8-0.3-1.3-0.9-1.6
			c-0.6-0.3-1.2-0.6-1.8-0.9c-0.9-0.5-1.4-1.3-1.1-2.3c0.3-1.1,1.2-1.4,2.3-1.4c0.7,0,1.3,0.7,2,0.1c0.2-0.1,0.3,0.1,0.3,0.3
			C174.2,61.6,174.3,62.3,174.1,62.9z"/>
		<path class="st6" d="M176.2,68.1c-0.1-1.1-0.1-1.9,0-2.8c0.6,0.1,0.4,0.6,0.6,0.8c0.5,0.9,1.3,1.3,2.3,1.2c0.4,0,0.8-0.3,0.9-0.7
			c0.1-0.4-0.1-0.8-0.4-1c-0.6-0.4-1.3-0.7-2-1.1c-1.3-0.7-1.9-1.7-1.4-2.8c0.4-1,1.6-1.4,3-1.1c0,0,0.1,0,0.1,0
			c2.1-0.2,1.2,1.2,1.3,2.3c-0.7-0.1-0.6-0.6-0.8-0.9c-0.4-0.6-0.9-0.8-1.6-0.8c-0.4,0-0.8,0.2-0.9,0.6c-0.2,0.5,0.1,0.8,0.5,1
			c0.6,0.3,1.2,0.6,1.8,0.9c1.5,0.8,2,1.7,1.5,2.9c-0.5,1.2-2,1.8-3.4,1.2C177.1,67.6,176.7,67.5,176.2,68.1z"/>
		<path class="st7" d="M129.5,38.6c0-8.4,6.8-15.1,15.2-15.1c8.3,0,15.1,6.9,15,15.1c-0.1,8.4-6.9,15.1-15.2,15.1
			C136.2,53.6,129.5,46.9,129.5,38.6z"/>
		<path class="st7" d="M140.1,64.1c0-0.4,0-0.7,0-1.1c0.1-0.5-0.3-1.3,0.3-1.6c0.7-0.3,1.5-0.2,2.1,0.3c1.1,0.8,1.2,2,1,3.2
			c-0.2,1.1-0.8,1.8-1.9,2.1c-1,0.2-1.7,0-1.5-1.2C140.2,65.3,140.1,64.7,140.1,64.1z"/>
		<path class="st8" d="M132.2,62.8c0.2-0.5-0.4-1.5,0.8-1.4c0.9,0.1,1.4,0.5,1.4,1.4c0,1-0.7,1.3-1.5,1.3
			C131.7,64.2,132.4,63.3,132.2,62.8z"/>
		<path class="st9" d="M156.7,62.8c0.2-0.5-0.4-1.4,0.8-1.4c0.9,0,1.4,0.5,1.4,1.4c0,0.9-0.5,1.4-1.4,1.4
			C156.3,64.3,156.9,63.3,156.7,62.8z"/>
		<path class="st7" d="M148.8,61.2c0.4-0.6-0.6-1.7,0.9-1.7c1.3,0,1.9,0.6,2,1.8c0,1.2-0.8,1.9-2.1,1.8
			C148.2,63,149.2,61.8,148.8,61.2z"/>
		<path class="st10" d="M122.2,64.2c0-1.8,1.1-3.1,2.6-3.1c1.5,0,2.6,1.4,2.6,3.1c0,1.9-1.1,3.2-2.7,3.1
			C123.2,67.3,122.2,66,122.2,64.2z"/>
		<path class="st1" d="M141.2,47c-1.7-4.9-3.2-9.5-4.7-14.1c-0.3-0.8,0.1-0.8,0.6-0.8c0.5,0,1.1,0.1,1.1-0.6c0-0.7-0.7-0.5-1.2-0.5
			c-1.2,0-2.4,0.3-3.6,0.1c2.9-6,13.4-8.9,20.1-2.6c-1,0.2-1.8,0.7-2.1,1.7c-0.3,1.1,0,2,0.6,2.9c2.1,2.9,2.1,5.9,0.8,9
			c-0.6,1.4-0.8,3-1.5,4.6c-1.5-4.5-3-8.8-4.4-13.1c-0.3-0.9-0.5-1.6,0.8-1.5c0.4,0,0.8-0.1,0.7-0.6c0-0.5-0.4-0.5-0.8-0.5
			c-2.2,0.1-4.4,0.2-6.6,0c-0.4,0-0.8,0-0.8,0.5c0,0.5,0.4,0.6,0.7,0.6c1-0.1,1.2,0.6,1.6,1.4c1.6,3.1,1.6,6.1,0.1,9.2
			C142.1,43.9,141.8,45.3,141.2,47z"/>
		<path class="st1" d="M144.8,39.7c1.4,3.9,2.7,7.5,4.1,11.1c0.2,0.5,0,0.7-0.4,0.9c-2.4,0.7-4.8,0.7-7.2,0.2
			c-0.4-0.1-0.5-0.3-0.3-0.7C142.2,47.4,143.4,43.7,144.8,39.7z"/>
		<path class="st11" d="M138.5,50.6c-6.1-2.5-9.4-10.8-6.4-17.3C132.6,34.1,138.1,49,138.5,50.6z"/>
		<path class="st12" d="M151.4,50.3c1.1-3.1,2.1-6,3.1-8.8c0.9-2.9,2.4-5.6,2-8.9C159.8,37.2,158.4,46.4,151.4,50.3z"/>
	</g>
</g>
</svg>
