<?xml version="1.0" encoding="utf-8"?>
<!-- Generator: Adobe Illustrator 22.1.0, SVG Export Plug-In . SVG Version: 6.00 Build 0)  -->
<svg version="1.1" id="Capa_1" xmlns="http://www.w3.org/2000/svg" xmlns:xlink="http://www.w3.org/1999/xlink" x="0px" y="0px"
	 viewBox="0 0 141 32" style="enable-background:new 0 0 141 32;" xml:space="preserve">
<style type="text/css">
	.st0{display:none;}
	.st1{display:inline;}
	.st2{fill:#E40913;}
</style>
<g>
	<g class="st0">
		<g class="st1">
			<g>
				<path class="st2" d="M31,13.6c0.8-5,1.2-7.5,2-12.3c1.6,0,2.4,0,4,0c0,6.6,0,10,0,16.6c-1.1,0.1-1.6,0.2-2.7,0.4
					c0-4.9,0-7.2,0-12.1c-0.8,4.9-1.2,7.4-2,12.4c-1.1,0.1-1.6,0.3-2.7,0.4c-1-4.8-1.4-7.3-2.3-12.2c0,5.1,0,7.6,0,12.6
					c-1,0.1-1.5,0.3-2.5,0.4c0-7.3,0-10.9,0-18.3c1.6,0,2.4,0,4,0C29.8,6.3,30.2,8.8,31,13.6z"/>
				<path class="st2" d="M42.7,8.1C44.3,8,45,8,46.6,8c0,0.9,0,1.3,0,2.2c-1.6,0.1-2.3,0.1-3.9,0.2c0,1.8,0,2.8,0,4.7
					c2-0.1,3-0.3,4.9-0.4c0,0.9,0,1.3,0,2.2c-3.1,0.4-4.6,0.4-7.8,0.8c0-6.6,0-9.9,0-16.4c3.1,0,4.7,0,7.8,0c0,0.9,0,1.3,0,2.2
					c-2,0-3,0-4.9,0.1C42.7,5.3,42.7,6.2,42.7,8.1z"/>
				<path class="st2" d="M54.5,8.1c1.6,0,2.4,0,4-0.1c0,1.9,0,2.8,0,4.8c0,2.5-1.5,3.9-4.3,4c-2.8,0.1-4.3-1.2-4.3-3.6
					c0-3.2,0-4.9,0-8.1c0-2.5,1.5-3.9,4.3-3.9s4.3,1.3,4.3,3.8c0,0.6,0,0.9,0,1.5c-1.1,0-1.7,0-2.8,0c0-0.7,0-0.9,0-1.7
					c0-1.1-0.6-1.5-1.5-1.5s-1.5,0.4-1.5,1.5c0,3.3,0,5,0,8.4c0,1.1,0.6,1.5,1.5,1.4c0.9,0,1.5-0.5,1.5-1.5c0-1.1,0-1.7,0-2.7
					c-0.5,0-0.8,0-1.3,0C54.5,9.4,54.5,9,54.5,8.1z"/>
				<path class="st2" d="M70.4,16.1c-1.2,0-1.8,0-2.9,0c-0.2-1.1-0.3-1.7-0.5-2.6c-1.4,0-2.1,0-3.5,0c-0.2,1.1-0.3,1.7-0.5,2.7
					c-1.1,0-1.6,0-2.7,0.1c1.2-6.1,1.8-9.1,2.9-15c1.7,0,2.5,0,4.2,0C68.6,7.2,69.2,10.2,70.4,16.1z M63.8,11.5c1.1,0,1.7,0,2.8,0
					C66.1,8.4,65.8,7,65.3,4C64.6,6.9,64.4,8.5,63.8,11.5z"/>
				<path class="st2" d="M81,5c0,0.8,0,1.2,0,2c0,2.4-1.4,3.7-4.3,3.6c-0.6,0-0.8,0-1.3,0c0,2.2,0,3.4,0,5.6c-1.2,0-1.8,0-2.8,0
					c0-5.9,0-8.9,0-14.9c1.7,0,2.5,0,4.3,0C79.6,1.3,81,2.6,81,5z M75.4,3.4c0,2.1,0,3,0,5c0.6,0,0.8,0,1.3,0c0.9,0,1.4-0.3,1.4-1.4
					c0-0.8,0-1.3,0-2.2c0-1.1-0.5-1.4-1.4-1.4C76.2,3.4,75.9,3.4,75.4,3.4z"/>
				<path class="st2" d="M86,7.6c1.6,0,2.3,0,3.9,0.1c0,0.9,0,1.3,0,2.2c-1.6,0-2.3-0.1-3.9-0.1c0,1.8,0,2.7,0,4.5
					c2,0.1,3,0.1,4.9,0.3c0,0.9,0,1.3,0,2.2c-3.2-0.2-4.7-0.3-7.8-0.4c0-6,0-9.1,0-15c3.2,0,4.7,0,7.8,0c0,0.9,0,1.3,0,2.2
					c-2,0-3,0-4.9,0C86,5.2,86,6,86,7.6z"/>
				<path class="st2" d="M93.5,1.3c1.2,0,1.8,0,2.8,0c0,5.5,0,8.2,0,13.6c1.9,0.1,2.8,0.2,4.8,0.4c0,1,0,1.4,0,2.3
					c-3-0.4-4.6-0.4-7.6-0.7C93.5,10.7,93.5,7.6,93.5,1.3z"/>
				<path class="st2" d="M103.1,1.3c1.2,0,1.8,0,2.8,0c0,6.7,0,10,0,16.8c-1.2-0.1-1.8-0.3-2.8-0.4C103.1,11.2,103.1,7.9,103.1,1.3z
					"/>
				<path class="st2" d="M112.7,1.1c2.8,0,4.3,1.7,4.3,4.6c0,0.3,0,0.3,0,0.6c-1.1,0-1.6-0.1-2.7-0.1c0-0.3,0-0.4,0-0.8
					c0-1.3-0.5-1.8-1.4-1.8s-1.4,0.5-1.4,1.8c0,3.7,5.6,4.7,5.6,9.9c0,2.9-1.4,4.3-4.3,4c-2.8-0.4-4.3-2.1-4.3-4.9
					c0-0.4,0-0.7,0-1.1c1.1,0.1,1.6,0.1,2.7,0.3c0,0.5,0,0.8,0,1.3c0,1.3,0.6,1.8,1.5,1.8c0.9,0.1,1.5-0.2,1.5-1.5
					c0-3.7-5.6-4.8-5.6-9.7C108.4,2.7,109.9,1.1,112.7,1.1z"/>
			</g>
		</g>
	</g>
</g>
<g>
	<g>
		<path class="st2" d="M4.8,8.1c2.6,0,3.7,1.5,3.7,3.8c0,0.8,0,1.1,0,1.9c0,2.5-1.2,3.9-3.8,4c-0.6,0-1,0.1-1.6,0.1
			c0,2.6,0,3.8,0,6.4c-0.7,0.1-1.1,0.1-1.8,0.2c0-6.6,0-9.8,0-16.4C2.6,8.1,3.3,8.1,4.8,8.1z M4.6,16.2c1.4-0.1,2-0.7,2-2.2
			c0-0.8,0-1.3,0-2.1c0-1.5-0.5-2.2-1.9-2.2c-0.7,0-1.1,0-1.8,0c0,2.6,0,3.9,0,6.6C3.7,16.2,4,16.2,4.6,16.2z"/>
		<path class="st2" d="M15.8,14.7c0,0.6,0,0.9,0,1.5c-1.6,0.1-2.4,0.1-4,0.2c0,2.2,0,3.3,0,5.5c2-0.2,2.9-0.2,4.9-0.4
			c0,0.6,0,0.9,0,1.5c-2.7,0.2-4,0.3-6.7,0.6c0-6.2,0-9.4,0-15.6c2.7,0,4,0,6.7,0c0,0.6,0,0.9,0,1.5c-2,0-3,0-4.9,0
			c0,2.1,0,3.2,0,5.3C13.4,14.8,14.2,14.8,15.8,14.7z"/>
		<path class="st2" d="M18.4,23c0-6,0-8.9,0-14.9c0.7,0,1.1,0,1.8,0c0,5.3,0,8,0,13.3c1.9-0.1,2.8-0.2,4.7-0.3c0,0.6,0,0.9,0,1.5
			C22.3,22.7,21,22.8,18.4,23z"/>
		<path class="st2" d="M28.1,8c0,5.7,0,8.5,0,14.2c-0.7,0-1.1,0.1-1.8,0.1c0-5.7,0-8.6,0-14.4C27,8,27.4,8,28.1,8z"/>
		<path class="st2" d="M37.2,11.4c0,0.5,0,0.7,0,1.2c-0.7,0-1,0-1.7,0c0-0.5,0-0.8,0-1.3c0-1.2-0.6-2-1.9-2c-1.3,0-1.9,0.8-1.9,2
			c0,3,0,4.4,0,7.4c0,1.3,0.6,2,1.9,1.9c1.3-0.1,1.9-0.8,1.9-2.1c0-0.7,0-1.1,0-1.8c0.7,0,1,0,1.7-0.1c0,0.7,0,1,0,1.7
			c0,2.1-1.2,3.5-3.7,3.6c-2.5,0.1-3.7-1.2-3.7-3.3c0-2.9,0-4.4,0-7.3c0-2.1,1.2-3.6,3.7-3.6C36.1,7.9,37.2,9.3,37.2,11.4z"/>
		<path class="st2" d="M40.6,18.4c0,1.2,0.6,1.9,1.9,1.9c1.3,0,1.9-0.8,1.9-2c0-4.1,0-6.2,0-10.3c0.7,0,1,0,1.7,0
			c0,4.1,0,6.1,0,10.1c0,2-1.2,3.4-3.7,3.5c-2.5,0.1-3.7-1.2-3.7-3.3c0-4.1,0-6.2,0-10.4c0.7,0,1.1,0,1.8,0
			C40.6,12.2,40.6,14.3,40.6,18.4z"/>
		<path class="st2" d="M47.9,21.3c0-5.3,0-8,0-13.3c0.7,0,1.1,0,1.8,0c0,4.8,0,7.1,0,11.9c1.9-0.1,2.8-0.1,4.7-0.1
			c0,0.5,0,0.8,0,1.3C51.8,21.2,50.5,21.3,47.9,21.3z"/>
		<path class="st2" d="M57.7,18.5c-0.3,1.1-0.4,1.6-0.6,2.6c-0.7,0-1,0-1.7,0c1.3-5.3,1.9-7.9,3.2-13.1c1.1,0,1.6,0,2.6,0
			c1.3,5.2,1.9,7.8,3.1,13c-0.7,0-1.1,0-1.8,0c-0.3-1-0.4-1.6-0.6-2.6C60.2,18.4,59.4,18.4,57.7,18.5z M57.9,17.2c1.5,0,2.2,0,3.7,0
			c-0.7-3-1.1-4.5-1.8-7.5C59,12.7,58.7,14.2,57.9,17.2z"/>
		<path class="st2" d="M72.8,11.1c0,0.1,0,0.2,0,0.4c-0.7,0-1,0-1.7,0c0-0.2,0-0.3,0-0.4c0-1.2-0.6-1.9-1.9-1.9
			c-1.3,0-1.9,0.7-1.9,1.8c0,2.9,5.5,3.2,5.5,6.8c0,2-1.2,3.2-3.7,3.2s-3.7-1.3-3.7-3.2c0-0.3,0-0.4,0-0.7c0.7,0,1,0,1.7,0
			c0,0.3,0,0.5,0,0.8c0,1.2,0.6,1.8,1.9,1.8c1.3,0,1.9-0.7,1.9-1.9c0-2.9-5.5-3.2-5.5-6.8c0-2,1.2-3.2,3.6-3.2
			C71.7,7.9,72.8,9.2,72.8,11.1z"/>
		<path class="st2" d="M81.7,11.2c0,0.4,0,0.7,0,1.1c-0.7,0-1,0-1.7,0c0-0.5,0-0.7,0-1.2c0-1.2-0.6-1.9-1.9-1.9
			c-1.3,0-1.9,0.7-1.9,1.9c0,2.7,0,4.1,0,6.9c0,1.2,0.6,1.9,1.9,1.9c1.3,0,1.9-0.7,1.9-1.9c0-1,0-1.6,0-2.6c-0.7,0-1,0-1.7,0
			c0-0.5,0-0.8,0-1.3c1.4,0,2.1,0,3.4,0c0,1.5,0,2.3,0,3.8c0,2-1.2,3.3-3.7,3.2c-2.5,0-3.7-1.3-3.7-3.3c0-2.7,0-4,0-6.7
			c0-2,1.2-3.3,3.7-3.3C80.5,7.9,81.7,9.2,81.7,11.2z"/>
		<path class="st2" d="M87.1,8c2.6,0,3.7,1.1,3.7,3c0,0.4,0,0.6,0,1.1c0,1.5-0.6,2.4-2,2.7c1.5,0.4,2.1,1.4,2.1,2.8
			c0,0.8,0,1.2,0,2.1c0,0.6,0,1.1,0.3,1.6c-0.7,0-1.1,0-1.9-0.1c-0.2-0.4-0.3-0.7-0.3-1.6c0-0.8,0-1.2,0-2.1c0-1.5-0.9-2-2.4-2
			c-0.5,0-0.8,0-1.3,0c0,2.2,0,3.4,0,5.6c-0.7,0-1.1,0-1.8,0c0-5.2,0-7.8,0-13.1C84.9,8,85.6,8,87.1,8z M86.6,14.2
			c1.5,0,2.3-0.3,2.3-1.8c0-0.5,0-0.8,0-1.3c0-1.2-0.5-1.8-1.9-1.8c-0.7,0-1.1,0-1.8,0c0,1.9,0,2.9,0,4.9
			C85.8,14.2,86.1,14.2,86.6,14.2z"/>
		<path class="st2" d="M94.5,18.7c-0.3,1.1-0.4,1.6-0.6,2.7c-0.7,0-1,0-1.7-0.1c1.2-5.3,1.9-7.9,3.1-13.3c1.1,0,1.6,0,2.6,0
			c1.3,5.4,1.9,8.1,3.2,13.6c-0.7,0-1.1,0-1.8-0.1c-0.3-1.1-0.4-1.7-0.6-2.8C97,18.8,96.2,18.8,94.5,18.7z M94.8,17.4
			c1.5,0,2.2,0.1,3.7,0.1c-0.7-3.1-1.1-4.7-1.9-7.8C95.8,12.8,95.5,14.4,94.8,17.4z"/>
		<path class="st2" d="M104.1,21.8c0-5,0-7.4,0-12.4c-1.2,0-1.8,0-3,0c0-0.6,0-0.8,0-1.4c3.1,0,4.7,0,7.9,0c0,0.6,0,0.9,0,1.4
			c-1.2,0-1.8,0-3,0c0,5,0,7.5,0,12.5C105.1,21.9,104.8,21.9,104.1,21.8z"/>
		<path class="st2" d="M111.9,8c0,5.7,0,8.5,0,14.2c-0.7,0-1.1-0.1-1.8-0.1c0-5.6,0-8.5,0-14.1C110.8,8,111.2,8,111.9,8z"/>
		<path class="st2" d="M120.9,11.6c0,0.2,0,0.2,0,0.4c-0.7,0-1,0-1.7,0c0-0.2,0-0.3,0-0.5c0-1.3-0.6-2.1-1.9-2.1s-1.9,0.7-1.9,2
			c0,3.2,5.5,3.7,5.5,7.9c0,2.2-1.2,3.6-3.7,3.4c-2.5-0.2-3.7-1.7-3.7-3.8c0-0.3,0-0.5,0-0.8c0.7,0,1,0,1.7,0.1c0,0.4,0,0.5,0,0.9
			c0,1.3,0.6,2.1,1.9,2.2c1.3,0.1,1.9-0.7,1.9-2c0-3.3-5.5-3.8-5.5-7.8c0-2.2,1.2-3.6,3.6-3.6C119.7,7.9,120.9,9.4,120.9,11.6z"/>
		<path class="st2" d="M122.4,11.7c0-2.3,1.2-3.8,3.7-3.8c2.5,0,3.8,1.5,3.8,3.9c0,3.2,0,4.8,0,8c0,2.4-1.2,3.8-3.8,3.6
			c-2.5-0.2-3.7-1.8-3.8-4C122.4,16.3,122.4,14.7,122.4,11.7z M124.2,19.6c0,1.4,0.6,2.2,1.9,2.3c1.3,0.1,1.9-0.7,1.9-2.1
			c0-3.2,0-4.9,0-8.1c0-1.4-0.6-2.2-1.9-2.2c-1.3,0-1.9,0.8-1.9,2.2C124.2,14.8,124.2,16.4,124.2,19.6z"/>
		<path class="st2" d="M133.3,23.9c-0.7-0.1-1-0.1-1.6-0.1c0-6.3,0-9.4,0-15.7c0.9,0,1.4,0,2.3,0c1.5,4.6,2.3,6.9,3.8,11.7
			c0-4.7,0-7,0-11.7c0.6,0,1,0,1.6,0c0,6.6,0,9.8,0,16.4c-0.8-0.1-1.1-0.1-1.9-0.2c-1.7-5.4-2.5-8-4.2-13.2
			C133.3,16.2,133.3,18.8,133.3,23.9z"/>
	</g>
</g>
</svg>
