<?xml version="1.0" encoding="utf-8"?>
<!-- Generator: Adobe Illustrator 22.1.0, SVG Export Plug-In . SVG Version: 6.00 Build 0)  -->
<svg version="1.1" xmlns="http://www.w3.org/2000/svg" xmlns:xlink="http://www.w3.org/1999/xlink" x="0px" y="0px"
	 viewBox="0 0 160 32" style="enable-background:new 0 0 160 32;" xml:space="preserve">
<style type="text/css">
	.st0{fill:#0087BE;}
	.st1{fill:#585C60;}
	.st2{fill:#F3F3F3;}
	.st3{fill:#FFFFFF;}
	.st4{font-family:'BebasNeueRegular';}
	.st5{font-size:15.0854px;}
</style>
<g id="Capa_1">
	<g>
		<rect class="st0" width="160" height="32"/>
		<path class="st1" d="M15.6,0.6c8.3,0,15,6.8,15,15.2c0,8.3-6.8,15-15.1,15c-8.3,0-15-6.8-15-15.2C0.5,7.3,7.3,0.6,15.6,0.6z"/>
		<path class="st2" d="M12.1,23.9c-0.7-2.1-1.4-4.1-2-6.1c-0.9-2.6-1.8-5.2-2.7-7.8C7.3,9.5,7.3,9.3,7.9,9.3c0.3,0,0.5-0.1,0.8-0.1
			c0.4,0,0.6-0.2,0.6-0.6c0-0.4-0.3-0.5-0.7-0.5C7.4,8.2,6.1,8.2,4.9,8.3c-0.2,0-0.3,0-0.5,0C8,2,18-0.4,24.6,5.7
			c-1.3,0.2-2.1,0.9-2.3,2.2c-0.1,0.7,0.1,1.3,0.4,2c0.3,0.6,0.7,1.1,1,1.7c1,1.7,1.3,3.6,0.7,5.5c-0.7,2.2-1.3,4.4-2,6.6
			c0,0.1-0.1,0.1-0.2,0.2c-1.1-3.4-2.3-6.7-3.4-10.1c-0.4-1.2-0.8-2.4-1.2-3.6c-0.2-0.5-0.2-0.8,0.5-0.8c0.2,0,0.4,0,0.6-0.1
			c0.4,0,0.7-0.1,0.7-0.6c0-0.5-0.4-0.5-0.8-0.5c-0.6,0-1.2,0-1.7,0.1c-1.6,0.2-3.3,0-4.9-0.1c-0.4,0-0.9,0-0.9,0.5
			c0,0.5,0.4,0.6,0.8,0.6c0.9,0,1.3,0.4,1.6,1.2c0.4,1.4,1,2.8,1.5,4.2c0.1,0.3,0.2,0.5,0.1,0.9c-0.9,2.7-1.8,5.4-2.7,8.1
			C12.3,23.7,12.2,23.8,12.1,23.9z"/>
		<path class="st2" d="M15.8,17c0.5,1.3,1,2.6,1.4,3.9c0.9,2.4,1.7,4.8,2.6,7.1c0.1,0.4,0.2,0.6-0.3,0.7c-2.4,0.7-4.8,0.8-7.3,0.2
			c-0.4-0.1-0.5-0.2-0.4-0.6c1.3-3.6,2.5-7.3,3.8-10.9C15.7,17.2,15.7,17.2,15.8,17z"/>
		<path class="st2" d="M3.2,10.3c2.1,5.9,4.3,11.7,6.4,17.5C3.6,25.2,0,17.2,3.2,10.3z"/>
		<path class="st2" d="M27.8,9.8c3.4,6.9,0.1,14.6-5.3,17.5c0.9-2.5,1.7-5,2.6-7.4c0.6-1.7,1.2-3.4,1.8-5.1c0.3-1,0.6-2,0.7-3
			c0.1-0.5,0-1.1,0.1-1.6C27.6,10.1,27.5,9.8,27.8,9.8z"/>
		<path class="st2" d="M27.8,9.8c-0.3,0.6,0.1,1.3-0.3,2c0-0.8,0-1.5,0-2.3C27.7,9.6,27.8,9.7,27.8,9.8z"/>
	</g>
</g>
<g id="Capa_2">
	<text transform="matrix(1 0 0 1 36.2188 22.3242)" class="st3 st4 st5">Todo Para Wordpress</text>
</g>
<g id="Capa_3">
</g>
</svg>
